# xmcd
#
# Track frame offsets:
#	150
#	17089
#	33280
#	41418
#	52833
#	62257
#	77579
#	87117
#	108477
#	126838
#	139734
#	149962
#	166355
#	188546
#	195917
#
# Disc length: 2785 seconds
#
# Revision: 0
# Processed by: cddbd v1.5.2PL0 Copyright (c) Steve Scherf et al.
# Submitted via: dBpowerAMP V4.0
#
DISCID=bc0adf0f
DTITLE=The Rebel - Kit
DYEAR=1900
DGENRE=Country/Punk
TTITLE0=Kit
TTITLE1=Kneel, Mulholland: Drive!
TTITLE2=Solina
TTITLE3=Tammy Payton Likes A Boy
TTITLE4=I.E.S.V
TTITLE5=Piers, Peers, Piers
TTITLE6=Onedin and Sabina
TTITLE7=Path To The Lair
TTITLE8=Gordon Highway's Wife
TTITLE9=Why Must I Pay?
TTITLE10=A Walk In D
TTITLE11=Severe Withdrawals
TTITLE12=Blase Children
TTITLE13=Wasps The Size Of Pepper and Spiders You Can Hear
TTITLE14=The Sound Of The Rebel's Voice
EXTD=
EXTT0=
EXTT1=
EXTT2=
EXTT3=
EXTT4=
EXTT5=
EXTT6=
EXTT7=
EXTT8=
EXTT9=
EXTT10=
EXTT11=
EXTT12=
EXTT13=
EXTT14=
PLAYORDER=
